<svg width="225" height="200" viewBox="0 0 225 200" fill="none" xmlns="http://www.w3.org/2000/svg">
<path d="M215 0H10C4.47715 0 0 4.47715 0 10V190C0 195.523 4.47715 200 10 200H215C220.523 200 225 195.523 225 190V10C225 4.47715 220.523 0 215 0Z" fill="white"/>
<path d="M203.422 11.2954H21.5776C16.6786 11.2954 12.7072 15.2669 12.7072 20.1659V179.834C12.7072 184.733 16.6786 188.705 21.5776 188.705H203.422C208.321 188.705 212.293 184.733 212.293 179.834V20.1659C212.293 15.2669 208.321 11.2954 203.422 11.2954Z" stroke="#EBEBEA" stroke-width="2" stroke-linecap="round" stroke-linejoin="round" stroke-dasharray="8 12"/>
</svg>
