<svg width="36" height="36" viewBox="0 0 36 36" fill="none" xmlns="http://www.w3.org/2000/svg">
<path d="M31.5 24.0528V11.9478C31.5 10.8708 30.9255 9.87476 29.9925 9.33626L19.509 3.28376C18.576 2.74526 17.4255 2.74526 16.4925 3.28376L6.0075 9.33476C5.0745 9.87476 4.5 10.8693 4.5 11.9478V24.0528C4.5 25.1298 5.0745 26.1258 6.0075 26.6643L16.491 32.7168C17.424 33.2553 18.5745 33.2553 19.5075 32.7168L29.991 26.6643C30.9255 26.1258 31.5 25.1313 31.5 24.0528Z" stroke="#315BFF" stroke-width="2" stroke-linecap="round" stroke-linejoin="round"/>
<path d="M4.92001 25.5451L31.08 10.4551" stroke="#315BFF" stroke-width="2" stroke-linecap="round" stroke-linejoin="round"/>
<path d="M18 2.92529V33.0753" stroke="#315BFF" stroke-width="2" stroke-linecap="round" stroke-linejoin="round"/>
<path d="M31.08 25.5451L4.92001 10.4551" stroke="#315BFF" stroke-width="2" stroke-linecap="round" stroke-linejoin="round"/>
</svg>
