<svg width="572" height="591" viewBox="0 0 572 591" fill="none" xmlns="http://www.w3.org/2000/svg">
<g style="mix-blend-mode:hard-light" opacity="0.7" filter="url(#filter0_f_1604_17231)">
<ellipse cx="286.332" cy="295.546" rx="178.668" ry="188.546" fill="#315BFF"/>
</g>
<g opacity="0.5" filter="url(#filter1_f_1604_17231)">
<ellipse cx="184.17" cy="404.834" rx="81.1701" ry="85.1658" fill="#FF3C78"/>
</g>
<g opacity="0.5" filter="url(#filter2_f_1604_17231)">
<ellipse cx="321.32" cy="305.392" rx="86.768" ry="92.0578" fill="#FE7831"/>
</g>
<g opacity="0.19">
<g opacity="0.19">
<path opacity="0.19" d="M482.93 202.165C480.308 183.221 462.824 169.989 443.879 172.611C441.918 172.883 440.021 173.322 438.193 173.898C432.263 174.958 365.71 196.977 336.559 161.398C322.216 144.623 299.906 135.268 276.421 138.518C255.763 141.377 238.618 153.373 228.497 169.86L206.076 201.953C195.573 217.648 180.511 229.746 162.919 236.615L111.278 256.781C107.82 257.913 104.457 259.232 101.196 260.717L101.072 260.766L101.074 260.773C62.6191 278.348 38.5297 319.591 44.6245 363.622C52.0667 417.38 101.678 454.927 155.436 447.486C160.78 446.746 165.959 445.584 170.955 444.048L223.691 432.364C252.573 425.965 282.777 433.797 304.916 453.417C310.856 458.681 317.966 466.391 318.941 467.911C318.948 467.922 318.988 467.919 319.009 467.924C336.767 490.021 365.346 502.51 395.469 498.339C441.074 492.027 472.926 449.939 466.613 404.334C466.527 403.712 450.487 312.826 450.487 312.826C450.465 312.694 450.443 312.562 450.421 312.429C446.803 290.701 451.254 268.396 462.742 249.604L477.483 226.046C481.988 219.258 484.134 210.869 482.93 202.165Z" fill="#0A083A"/>
</g>
</g>
<path d="M70.7925 379.175C69.1346 396.776 82.0602 412.389 99.6608 414.046C101.483 414.218 103.282 414.225 105.049 414.095C110.61 414.397 175.158 408.699 193.841 446.891C203.189 465.025 221.278 478.173 243.097 480.229C262.29 482.037 280.258 474.878 292.86 462.192L319.839 438.071C332.616 426.177 348.733 418.486 366.018 416.036L416.755 408.842C420.107 408.557 423.412 408.084 426.662 407.439L426.784 407.422L426.783 407.415C465.108 399.756 495.528 367.757 499.381 326.849C504.083 276.903 467.408 232.602 417.463 227.899C412.5 227.431 407.592 227.378 402.773 227.702L352.847 227.03C325.505 226.663 299.99 213.212 284.231 190.865C280.003 184.87 275.241 176.425 274.686 174.852C274.682 174.84 274.645 174.834 274.628 174.825C263.336 151.179 240.271 133.883 212.284 131.247C169.914 127.257 132.332 158.37 128.342 200.739C128.288 201.317 123.446 286.491 123.446 286.491C123.439 286.615 123.431 286.738 123.422 286.862C122.071 307.178 113.336 326.302 99.0151 340.775L80.7569 358.845C75.2657 363.996 71.5539 371.09 70.7925 379.175Z" fill="url(#paint0_linear_1604_17231)"/>
<path d="M93.0132 428.829C95.5639 446.323 111.813 458.437 129.307 455.886C131.119 455.623 132.868 455.204 134.554 454.66C140.029 453.641 201.4 432.846 228.583 465.537C241.952 480.947 262.636 489.447 284.322 486.286C303.399 483.505 319.165 472.303 328.412 456.997L348.924 427.183C358.527 412.604 372.369 401.322 388.585 394.855L436.184 375.871C439.374 374.802 442.472 373.561 445.477 372.165L445.592 372.12L445.59 372.114C481.018 355.612 503.011 317.328 497.084 276.669C489.847 227.027 443.738 192.652 394.097 199.889C389.163 200.608 384.383 201.717 379.776 203.169L331.108 214.32C304.454 220.427 276.482 213.388 255.887 195.401C250.362 190.575 243.738 183.495 242.827 182.097C242.819 182.086 242.783 182.09 242.765 182.085C226.203 161.778 199.702 150.424 171.886 154.48C129.773 160.619 100.611 199.734 106.751 241.846C106.834 242.421 122.266 326.325 122.266 326.325C122.287 326.446 122.308 326.569 122.329 326.691C125.819 346.749 121.853 367.397 111.359 384.845L97.8891 406.72C93.7707 413.023 91.8423 420.793 93.0132 428.829Z" fill="url(#paint1_linear_1604_17231)" fill-opacity="0.6"/>
<path d="M469.575 246.627C469.672 244.866 470.541 243.732 472.304 243.483C473.925 243.254 475.562 244.704 475.522 246.338C475.477 248.116 474.477 249.27 472.707 249.36C470.933 249.448 469.911 248.372 469.575 246.627Z" fill="#315BFF"/>
<path d="M479.653 177.617C481.443 177.716 482.622 178.573 482.773 180.368C482.92 182.157 481.939 183.279 480.172 183.553C478.489 183.813 476.979 182.482 476.944 180.759C476.906 178.92 477.987 177.998 479.653 177.617Z" fill="#315BFF"/>
<path d="M496.244 190.353C496.303 192.225 495.398 193.322 493.665 193.643C492.032 193.945 490.421 192.588 490.383 190.899C490.343 189.106 491.283 187.92 493.06 187.782C494.815 187.647 495.91 188.641 496.244 190.353Z" fill="#315BFF"/>
<path d="M427.969 215.246C427.978 213.708 428.774 212.485 430.604 212.286C432.417 212.087 433.611 213.028 433.813 214.845C434.018 216.665 433.029 217.787 431.246 218.086C429.658 218.352 428.177 217.12 427.969 215.246Z" fill="#315BFF"/>
<path d="M420.52 204.866C420.415 206.629 419.581 207.839 417.743 207.958C415.918 208.075 414.781 207.045 414.648 205.239C414.514 203.417 415.525 202.274 417.348 202.147C419.185 202.015 420.184 203.082 420.52 204.866Z" fill="#315BFF"/>
<path d="M485.693 253.555C487.442 253.594 488.666 254.331 488.9 256.16C489.134 257.982 488.186 259.101 486.454 259.463C484.815 259.808 483.178 258.501 483.086 256.81C482.988 255 483.974 253.974 485.693 253.555Z" fill="#315BFF"/>
<path d="M453.367 182.091C455.286 182.233 456.491 183.109 456.567 184.928C456.643 186.719 455.636 187.882 453.796 187.971C451.966 188.057 450.864 187.043 450.755 185.219C450.645 183.356 451.799 182.454 453.367 182.091Z" fill="#315BFF"/>
<path d="M447.239 248.815C448.971 248.907 450.207 249.647 450.383 251.493C450.556 253.303 449.654 254.418 447.852 254.684C446.099 254.941 444.583 253.728 444.544 252.001C444.504 250.202 445.534 249.2 447.239 248.815Z" fill="#315BFF"/>
<path d="M392.043 207.467C393.838 207.554 395.079 208.31 395.248 210.171C395.415 212.006 394.482 213.132 392.643 213.33C390.762 213.534 389.666 212.479 389.455 210.731C389.232 208.896 390.371 207.907 392.043 207.467Z" fill="#315BFF"/>
<path d="M495.158 219.26C493.64 219.227 492.508 218.395 492.305 216.551C492.128 214.947 493.407 213.378 494.965 213.359C496.76 213.339 497.899 214.306 498.165 216.075C498.4 217.636 497.068 219.096 495.158 219.26Z" fill="#315BFF"/>
<path d="M451.782 156.519C453.262 156.519 454.444 157.25 454.698 159.093C454.94 160.857 453.762 162.326 452.009 162.393C450.187 162.462 449.123 161.447 448.848 159.723C448.602 158.183 449.912 156.714 451.782 156.519Z" fill="#315BFF"/>
<path d="M509.76 200.568C509.899 202.211 508.71 203.646 507.104 203.775C505.534 203.9 504.008 202.617 503.876 201.062C503.746 199.509 505.036 197.991 506.604 197.846C508.2 197.701 509.622 198.927 509.76 200.568Z" fill="#315BFF"/>
<path d="M403.981 191.996C405.531 191.985 406.637 192.929 406.944 194.667C407.221 196.23 405.909 197.763 404.275 197.856C402.458 197.96 401.323 197.082 401.102 195.231C400.898 193.534 402.023 192.182 403.981 191.996Z" fill="#315BFF"/>
<path d="M459.002 239.298C457.476 239.189 456.244 238.417 456.103 236.549C455.961 234.696 456.993 233.549 458.767 233.387C460.587 233.22 461.675 234.34 461.959 236.084C462.204 237.593 460.793 239.154 459.002 239.298Z" fill="#315BFF"/>
<path d="M436.895 241.441C437.029 243.044 435.802 244.453 434.158 244.581C432.519 244.71 431.078 243.503 430.963 241.908C430.85 240.336 432.142 238.816 433.694 238.693C435.246 238.569 436.764 239.872 436.895 241.441Z" fill="#315BFF"/>
<path d="M486.482 231.262C486.518 233.3 485.71 234.48 483.865 234.675C482.025 234.87 480.851 233.913 480.655 232.11C480.458 230.301 481.428 229.124 483.248 228.914C485.098 228.699 486.078 229.766 486.482 231.262Z" fill="#315BFF"/>
<path d="M462.381 169.865C462.357 168.101 463.135 166.897 464.981 166.692C466.838 166.485 467.961 167.477 468.161 169.272C468.363 171.078 467.439 172.3 465.613 172.484C463.819 172.662 462.703 171.72 462.381 169.865Z" fill="#315BFF"/>
<path d="M453.672 211.704C453.777 209.895 454.682 208.818 456.511 208.675C458.139 208.548 459.639 209.857 459.592 211.439C459.538 213.209 458.604 214.388 456.76 214.469C454.921 214.549 453.945 213.483 453.672 211.704Z" fill="#315BFF"/>
<path d="M419.161 227.695C420.942 227.797 422.092 228.67 422.176 230.517C422.259 232.346 421.272 233.453 419.433 233.563C417.559 233.673 416.514 232.59 416.397 230.805C416.277 228.963 417.362 227.977 419.161 227.695Z" fill="#315BFF"/>
<path d="M428.241 187.563C430.027 187.512 431.25 188.303 431.434 190.138C431.614 191.923 430.753 193.096 428.872 193.304C427.005 193.509 425.86 192.59 425.658 190.796C425.455 189.002 426.413 187.893 428.241 187.563Z" fill="#315BFF"/>
<path d="M423.812 165.028C423.829 163.117 424.785 162.003 426.59 161.912C428.407 161.82 429.527 162.865 429.622 164.692C429.717 166.532 428.699 167.62 426.867 167.723C425.005 167.827 424.048 166.755 423.812 165.028Z" fill="#315BFF"/>
<path d="M439.837 172.022C441.638 171.914 443.161 173.182 443.144 174.767C443.126 176.523 442.299 177.762 440.402 177.856C438.555 177.948 437.482 176.976 437.338 175.137C437.192 173.246 438.295 172.331 439.837 172.022Z" fill="#315BFF"/>
<path d="M418.054 180.095C417.98 181.866 417.255 183.046 415.345 183.199C413.459 183.351 412.369 182.386 412.201 180.603C412.032 178.793 413.019 177.642 414.847 177.482C416.678 177.321 417.707 178.323 418.054 180.095Z" fill="#315BFF"/>
<path d="M404.707 246.33C404.85 244.537 405.682 243.377 407.546 243.285C409.41 243.191 410.53 244.256 410.623 246.012C410.718 247.774 409.745 248.924 407.845 249.02C405.951 249.116 405.044 248.054 404.707 246.33Z" fill="#315BFF"/>
<path d="M463.763 262.193C463.746 263.634 462.829 264.721 460.993 264.814C459.127 264.908 458.134 263.849 457.989 262.031C457.859 260.381 459.135 258.897 460.735 258.961C462.474 259.03 463.658 259.869 463.763 262.193Z" fill="#315BFF"/>
<path d="M448.552 226.277C448.507 227.875 447.628 229.051 445.797 229.146C443.981 229.241 442.901 228.204 442.732 226.384C442.578 224.745 443.86 223.324 445.463 223.237C447.053 223.152 448.446 224.43 448.552 226.277Z" fill="#315BFF"/>
<path d="M403.015 220.783C403.011 218.806 403.996 217.704 405.777 217.618C407.56 217.535 408.71 218.529 408.777 220.397C408.842 222.229 407.9 223.333 406.047 223.433C404.169 223.533 403.26 222.438 403.015 220.783Z" fill="#315BFF"/>
<path d="M442.095 197.642C443.671 197.637 444.823 198.458 444.946 200.327C445.068 202.172 444.116 203.226 442.268 203.399C440.341 203.578 439.298 202.462 439.158 200.745C439.017 198.996 439.964 197.825 442.095 197.642Z" fill="#315BFF"/>
<path d="M398.7 170.388C398.757 168.515 399.689 167.435 401.51 167.331C403.371 167.226 404.479 168.327 404.57 170.075C404.66 171.836 403.662 172.984 401.782 173.079C399.889 173.175 398.981 172.111 398.7 170.388Z" fill="#315BFF"/>
<path d="M467.072 221.891C467.191 220.094 468.057 218.976 469.888 218.8C471.509 218.645 473.012 219.926 473.007 221.523C473 223.307 472.085 224.486 470.235 224.596C468.393 224.703 467.413 223.634 467.072 221.891Z" fill="#315BFF"/>
<path d="M465.344 196.482C465.201 194.416 466.249 193.305 467.974 193.174C469.694 193.044 470.936 193.97 471.069 195.87C471.199 197.733 470.249 198.823 468.43 198.981C466.575 199.144 465.575 198.124 465.344 196.482Z" fill="#315BFF"/>
<path d="M393.636 233.189C395.775 232.975 396.817 233.983 397.157 235.696C397.471 237.281 396.232 238.708 394.552 238.875C392.7 239.059 391.536 238.203 391.328 236.375C391.118 234.552 392.093 233.483 393.636 233.189Z" fill="#315BFF"/>
<path d="M494.176 242.299C494.099 240.27 495.007 239.159 496.827 239.022C498.638 238.887 499.755 239.811 499.909 241.68C500.063 243.568 499.046 244.61 497.268 244.788C495.413 244.971 494.433 243.917 494.176 242.299Z" fill="#315BFF"/>
<path d="M478.773 206.531C478.75 204.518 479.759 203.375 481.503 203.265C483.249 203.155 484.478 204.161 484.57 206.014C484.66 207.82 483.698 208.969 481.859 209.098C479.992 209.228 479.055 208.126 478.773 206.531Z" fill="#315BFF"/>
<path d="M435.522 264.355C437.48 264.416 438.586 265.298 438.682 267.147C438.779 269.002 437.776 270.084 435.957 270.174C434.139 270.265 433.076 269.296 432.951 267.431C432.823 265.505 433.959 264.679 435.522 264.355Z" fill="#315BFF"/>
<path d="M508.314 229.352C506.952 229.282 505.845 228.404 505.677 226.574C505.529 224.979 506.861 223.427 508.436 223.476C509.908 223.522 511.354 224.022 511.213 225.846C511.094 227.38 511.122 229.281 508.314 229.352Z" fill="#315BFF"/>
<path d="M419.371 257.305C419.435 255.493 420.302 254.365 422.153 254.288C423.982 254.212 425.026 255.174 425.139 257.035C425.252 258.947 424.199 259.925 422.418 260.042C420.565 260.166 419.604 259.096 419.371 257.305Z" fill="#315BFF"/>
<path d="M393.44 184.923C393.392 186.527 392.473 187.825 390.69 187.714C389.705 187.652 388.426 186.766 387.931 185.885C387.378 184.9 389.634 181.909 390.617 181.904C392.082 181.896 393.341 183.155 393.44 184.923Z" fill="#315BFF"/>
<g opacity="0.9">
<g opacity="0.9">
<path opacity="0.9" d="M158.839 479.289C160.021 478.729 161.435 479.231 161.996 480.414C162.558 481.597 162.056 483.012 160.872 483.573C159.69 484.135 158.275 483.631 157.714 482.449C157.152 481.266 157.656 479.85 158.839 479.289Z" fill="#FF3C78"/>
</g>
<g opacity="0.9">
<path opacity="0.9" d="M152.163 465.175C153.347 464.613 154.761 465.117 155.323 466.3C155.884 467.483 155.38 468.898 154.197 469.459C153.014 470.02 151.601 469.517 151.039 468.334C150.478 467.151 150.981 465.737 152.163 465.175Z" fill="#FF3C78"/>
</g>
<g opacity="0.9">
<path opacity="0.9" d="M145.355 451.057C146.539 450.495 147.953 450.999 148.514 452.181C149.076 453.365 148.572 454.779 147.389 455.34C146.206 455.902 144.793 455.398 144.231 454.216C143.669 453.032 144.173 451.618 145.355 451.057Z" fill="#FF3C78"/>
</g>
<g opacity="0.9">
<path opacity="0.9" d="M138.68 436.94C139.865 436.379 141.277 436.881 141.84 438.064C142.4 439.247 141.897 440.662 140.714 441.224C139.531 441.785 138.117 441.282 137.556 440.099C136.994 438.915 137.498 437.502 138.68 436.94Z" fill="#FF3C78"/>
</g>
<g opacity="0.9">
<path opacity="0.9" d="M132.008 422.854C133.19 422.294 134.604 422.797 135.166 423.98C135.727 425.163 135.224 426.577 134.041 427.138C132.859 427.699 131.444 427.197 130.882 426.014C130.321 424.831 130.825 423.416 132.008 422.854Z" fill="#FF3C78"/>
</g>
<g opacity="0.9">
<path opacity="0.9" d="M171.119 473.451C172.302 472.889 173.716 473.391 174.278 474.576C174.839 475.758 174.336 477.172 173.152 477.734C171.97 478.295 170.556 477.793 169.995 476.609C169.433 475.426 169.936 474.012 171.119 473.451Z" fill="#FF3C78"/>
</g>
<g opacity="0.9">
<path opacity="0.9" d="M164.445 459.367C165.628 458.805 167.041 459.307 167.603 460.491C168.165 461.674 167.662 463.088 166.478 463.65C165.295 464.211 163.882 463.708 163.32 462.525C162.758 461.342 163.262 459.928 164.445 459.367Z" fill="#FF3C78"/>
</g>
<g opacity="0.9">
<path opacity="0.9" d="M157.637 445.25C158.819 444.689 160.233 445.191 160.795 446.375C161.357 447.557 160.853 448.972 159.67 449.534C158.488 450.094 157.074 449.592 156.512 448.408C155.95 447.226 156.454 445.81 157.637 445.25Z" fill="#FF3C78"/>
</g>
<g opacity="0.9">
<path opacity="0.9" d="M150.962 431.133C152.146 430.571 153.559 431.075 154.121 432.258C154.683 433.441 154.179 434.856 152.996 435.417C151.813 435.978 150.4 435.475 149.838 434.292C149.276 433.109 149.78 431.695 150.962 431.133Z" fill="#FF3C78"/>
</g>
<g opacity="0.9">
<path opacity="0.9" d="M144.288 417.017C145.471 416.455 146.884 416.958 147.447 418.142C148.008 419.325 147.505 420.739 146.321 421.3C145.138 421.862 143.725 421.359 143.163 420.176C142.602 418.993 143.105 417.578 144.288 417.017Z" fill="#FF3C78"/>
</g>
<g opacity="0.9">
<path opacity="0.9" d="M183.4 467.644C184.584 467.082 185.997 467.585 186.559 468.768C187.12 469.951 186.617 471.366 185.434 471.927C184.251 472.489 182.837 471.985 182.276 470.803C181.714 469.619 182.218 468.204 183.4 467.644Z" fill="#FF3C78"/>
</g>
<g opacity="0.9">
<path opacity="0.9" d="M176.726 453.526C177.91 452.966 179.323 453.469 179.885 454.651C180.447 455.833 179.943 457.248 178.76 457.809C177.578 458.371 176.163 457.868 175.602 456.685C175.04 455.503 175.543 454.088 176.726 453.526Z" fill="#FF3C78"/>
</g>
<g opacity="0.9">
<path opacity="0.9" d="M169.917 439.409C171.1 438.847 172.514 439.351 173.077 440.534C173.637 441.717 173.135 443.13 171.95 443.692C170.769 444.253 169.354 443.751 168.794 442.568C168.231 441.385 168.734 439.97 169.917 439.409Z" fill="#FF3C78"/>
</g>
<g opacity="0.9">
<path opacity="0.9" d="M163.243 425.294C164.427 424.732 165.84 425.235 166.402 426.42C166.963 427.601 166.46 429.016 165.277 429.578C164.094 430.139 162.68 429.636 162.119 428.453C161.557 427.269 162.06 425.856 163.243 425.294Z" fill="#FF3C78"/>
</g>
<g opacity="0.9">
<path opacity="0.9" d="M156.569 411.177C157.752 410.617 159.166 411.12 159.727 412.303C160.288 413.485 159.785 414.901 158.603 415.462C157.42 416.023 156.006 415.52 155.444 414.337C154.883 413.155 155.386 411.74 156.569 411.177Z" fill="#FF3C78"/>
</g>
<g opacity="0.9">
<path opacity="0.9" d="M195.681 461.803C196.864 461.241 198.278 461.745 198.84 462.928C199.401 464.111 198.897 465.526 197.714 466.087C196.532 466.648 195.118 466.145 194.557 464.962C193.995 463.779 194.497 462.365 195.681 461.803Z" fill="#FF3C78"/>
</g>
<g opacity="0.9">
<path opacity="0.9" d="M189.006 447.688C190.191 447.127 191.603 447.629 192.165 448.812C192.726 449.996 192.224 451.409 191.039 451.972C189.857 452.533 188.443 452.03 187.881 450.847C187.32 449.664 187.823 448.25 189.006 447.688Z" fill="#FF3C78"/>
</g>
<g opacity="0.9">
<path opacity="0.9" d="M182.198 433.569C183.381 433.007 184.795 433.51 185.357 434.693C185.918 435.876 185.415 437.291 184.231 437.853C183.049 438.414 181.635 437.91 181.074 436.728C180.512 435.544 181.016 434.129 182.198 433.569Z" fill="#FF3C78"/>
</g>
<g opacity="0.9">
<path opacity="0.9" d="M175.525 419.454C176.708 418.893 178.121 419.396 178.683 420.58C179.245 421.762 178.741 423.177 177.558 423.738C176.375 424.3 174.962 423.797 174.4 422.614C173.838 421.431 174.341 420.016 175.525 419.454Z" fill="#FF3C78"/>
</g>
<g opacity="0.9">
<path opacity="0.9" d="M168.85 405.369C170.033 404.808 171.447 405.311 172.009 406.495C172.57 407.677 172.066 409.092 170.883 409.653C169.7 410.214 168.287 409.712 167.725 408.528C167.164 407.346 167.666 405.931 168.85 405.369Z" fill="#FF3C78"/>
</g>
<g opacity="0.9">
<path opacity="0.9" d="M207.962 455.964C209.146 455.402 210.559 455.905 211.121 457.087C211.682 458.27 211.179 459.685 209.996 460.247C208.814 460.808 207.399 460.305 206.837 459.122C206.275 457.94 206.779 456.524 207.962 455.964Z" fill="#FF3C78"/>
</g>
<g opacity="0.9">
<path opacity="0.9" d="M201.288 441.879C202.471 441.32 203.884 441.821 204.447 443.005C205.007 444.187 204.505 445.602 203.321 446.164C202.138 446.725 200.724 446.222 200.162 445.039C199.601 443.856 200.105 442.44 201.288 441.879Z" fill="#FF3C78"/>
</g>
<g opacity="0.9">
<path opacity="0.9" d="M194.481 427.762C195.663 427.202 197.077 427.704 197.639 428.887C198.2 430.07 197.696 431.485 196.514 432.045C195.332 432.607 193.917 432.104 193.356 430.921C192.794 429.738 193.298 428.323 194.481 427.762Z" fill="#FF3C78"/>
</g>
<g opacity="0.9">
<path opacity="0.9" d="M187.804 413.646C188.989 413.085 190.401 413.587 190.964 414.771C191.525 415.954 191.022 417.367 189.838 417.93C188.656 418.491 187.242 417.988 186.68 416.805C186.118 415.621 186.622 414.208 187.804 413.646Z" fill="#FF3C78"/>
</g>
<g opacity="0.9">
<path opacity="0.9" d="M181.13 399.53C182.315 398.969 183.727 399.471 184.289 400.654C184.85 401.837 184.347 403.252 183.163 403.814C181.982 404.375 180.567 403.871 180.006 402.689C179.444 401.505 179.948 400.09 181.13 399.53Z" fill="#FF3C78"/>
</g>
</g>
<path d="M332.882 380.201C335.3 385.902 332.639 392.483 326.939 394.9C321.238 397.318 314.657 394.657 312.239 388.957C309.821 383.257 312.482 376.676 318.183 374.257C323.883 371.839 330.464 374.5 332.882 380.201Z" fill="url(#paint2_linear_1604_17231)"/>
<g opacity="0.96">
<g opacity="0.96">
<path opacity="0.96" d="M134.826 215.642L92.3854 198.498C91.168 198.006 90.3933 196.8 90.4524 195.488L91.1215 180.636C91.241 177.983 94.4218 176.699 96.3432 178.533C100.906 182.886 108.008 189.67 114.876 196.252C125.297 206.239 135.177 215.764 134.826 215.642Z" fill="white"/>
</g>
</g>
<g opacity="0.96">
<g opacity="0.96">
<path opacity="0.96" d="M141.953 214.185L126.895 170.959C126.463 169.72 126.86 168.342 127.886 167.523L139.5 158.243C141.575 156.586 144.637 158.115 144.523 160.768C143.845 176.615 142.185 214.755 141.953 214.185Z" fill="white"/>
</g>
</g>
<g opacity="0.96">
<g opacity="0.96">
<path opacity="0.96" d="M138.438 230.437L114.781 236.113C113.504 236.42 112.173 235.887 111.46 234.785L109.177 231.258C107.734 229.029 109.577 226.137 112.206 226.515C121.928 227.914 138.731 230.351 138.438 230.437Z" fill="white"/>
</g>
</g>
<circle cx="396.301" cy="468.07" r="10.8345" fill="url(#paint3_linear_1604_17231)" fill-opacity="0.7"/>
<circle cx="267.835" cy="95.8248" r="10.8345" fill="white"/>
<circle cx="441.187" cy="75.704" r="14.704" fill="white"/>
<defs>
<filter id="filter0_f_1604_17231" x="0.952652" y="0.287735" width="570.76" height="590.517" filterUnits="userSpaceOnUse" color-interpolation-filters="sRGB">
<feFlood flood-opacity="0" result="BackgroundImageFix"/>
<feBlend mode="normal" in="SourceGraphic" in2="BackgroundImageFix" result="shape"/>
<feGaussianBlur stdDeviation="53.3561" result="effect1_foregroundBlur_1604_17231"/>
</filter>
<filter id="filter1_f_1604_17231" x="14.0731" y="230.741" width="340.194" height="348.186" filterUnits="userSpaceOnUse" color-interpolation-filters="sRGB">
<feFlood flood-opacity="0" result="BackgroundImageFix"/>
<feBlend mode="normal" in="SourceGraphic" in2="BackgroundImageFix" result="shape"/>
<feGaussianBlur stdDeviation="44.4634" result="effect1_foregroundBlur_1604_17231"/>
</filter>
<filter id="filter2_f_1604_17231" x="145.625" y="124.407" width="351.39" height="361.969" filterUnits="userSpaceOnUse" color-interpolation-filters="sRGB">
<feFlood flood-opacity="0" result="BackgroundImageFix"/>
<feBlend mode="normal" in="SourceGraphic" in2="BackgroundImageFix" result="shape"/>
<feGaussianBlur stdDeviation="44.4634" result="effect1_foregroundBlur_1604_17231"/>
</filter>
<linearGradient id="paint0_linear_1604_17231" x1="57.2387" y1="201.069" x2="743.255" y2="311.816" gradientUnits="userSpaceOnUse">
<stop stop-color="#8AA8F8"/>
<stop offset="1" stop-color="#315BFF"/>
</linearGradient>
<linearGradient id="paint1_linear_1604_17231" x1="498.046" y1="320.303" x2="92.675" y2="320.303" gradientUnits="userSpaceOnUse">
<stop stop-color="#02BE83"/>
<stop offset="1" stop-color="#B3F6DC"/>
</linearGradient>
<linearGradient id="paint2_linear_1604_17231" x1="333.391" y1="392.925" x2="314.895" y2="361.498" gradientUnits="userSpaceOnUse">
<stop stop-color="#8AA8F8"/>
<stop offset="1" stop-color="#315BFF"/>
</linearGradient>
<linearGradient id="paint3_linear_1604_17231" x1="407.135" y1="468.07" x2="385.466" y2="468.07" gradientUnits="userSpaceOnUse">
<stop stop-color="#FE7831"/>
<stop offset="1" stop-color="#FFDEBE"/>
</linearGradient>
</defs>
</svg>
