<svg width="30" height="30" viewBox="0 0 30 30" fill="none" xmlns="http://www.w3.org/2000/svg">
<path d="M14.9999 1.5C7.5719 1.5 1.4939 7.578 1.4939 15.006V19.8855" stroke="#315BFF" stroke-width="2" stroke-linecap="round" stroke-linejoin="round"/>
<path d="M14.9999 1.5C22.4279 1.5 28.5059 7.578 28.5059 15.006V19.8855" stroke="#315BFF" stroke-width="2" stroke-linecap="round" stroke-linejoin="round"/>
<path d="M23.4914 28.5002H25.1624C27.0089 28.5002 28.5059 27.0032 28.5059 25.1567V18.4712H23.4914C22.5689 18.4712 21.8204 19.2197 21.8204 20.1422V26.8277C21.8204 27.7517 22.5674 28.5002 23.4914 28.5002Z" stroke="#315BFF" stroke-width="2" stroke-linecap="round" stroke-linejoin="round"/>
<path d="M6.5084 28.5002H4.8374C2.9909 28.5002 1.4939 27.0032 1.4939 25.1567V18.4712H6.5084C7.4309 18.4712 8.1794 19.2197 8.1794 20.1422V26.8277C8.1794 27.7517 7.4324 28.5002 6.5084 28.5002Z" stroke="#315BFF" stroke-width="2" stroke-linecap="round" stroke-linejoin="round"/>
</svg>
